# Blender 3.3.0
# www.blender.org
mtllib Honeycomb.mtl
o Cube
v 0.000000 0.890045 -0.853115
v 0.000000 0.890045 0.853115
v -1.153753 0.905837 0.860279
v 1.153753 0.905837 -0.860279
v 1.153753 0.905837 0.860279
v -1.153753 0.905837 -0.860279
v 0.000000 0.710422 -0.887326
v 0.000000 0.710422 0.887326
v -1.202264 0.694258 -0.893939
v -1.202264 0.694258 0.893939
v 1.202264 0.694258 0.893939
v 1.202264 0.694258 -0.893939
v 0.000000 0.900801 0.995122
v 0.000000 0.982158 0.925875
v 0.000000 0.941663 0.985845
v 0.000000 0.971442 0.960498
v -1.255529 0.998726 0.930896
v -1.355123 0.918141 1.000000
v -1.305326 0.988396 0.965448
v -1.341780 0.958900 0.990742
v 1.355123 0.918141 -1.000000
v 1.255529 0.998726 -0.930896
v 1.341780 0.958900 -0.990742
v 1.305326 0.988396 -0.965448
v 1.255529 0.998726 0.930896
v 1.355123 0.918141 1.000000
v 1.305326 0.988396 0.965448
v 1.341780 0.958900 0.990742
v -1.255529 0.998726 -0.930896
v -1.355123 0.918141 -1.000000
v -1.305326 0.988396 -0.965448
v -1.341780 0.958900 -0.990742
v 0.000000 0.900801 -0.995122
v 0.000000 0.982158 -0.925875
v 0.000000 0.941663 -0.985845
v 0.000000 0.971442 -0.960498
v -1.355123 0.698936 -1.000000
v -1.255529 0.618351 -0.930896
v -1.341780 0.658177 -0.990742
v -1.305326 0.628681 -0.965448
v -1.255529 0.618351 0.930896
v -1.355123 0.698936 1.000000
v -1.305326 0.628681 0.965448
v -1.341780 0.658177 0.990742
v 0.000000 0.716276 -0.995122
v 0.000000 0.634918 -0.925875
v 0.000000 0.675414 -0.985845
v 0.000000 0.645635 -0.960498
v 0.000000 0.716276 0.995122
v 0.000000 0.634918 0.925875
v 0.000000 0.675414 0.985845
v 0.000000 0.645635 0.960498
v 1.255529 0.618351 0.930896
v 1.355123 0.698936 1.000000
v 1.305326 0.628681 0.965448
v 1.341780 0.658177 0.990742
v 1.255529 0.618351 -0.930896
v 1.355123 0.698936 -1.000000
v 1.305326 0.628681 -0.965448
v 1.341780 0.658177 -0.990742
v 1.198893 0.998001 -0.891600
v 1.153753 0.960376 -0.860279
v 1.176323 0.992749 -0.875939
v 1.159800 0.978977 -0.864475
v 1.202264 0.656080 -0.893939
v 1.247387 0.618455 -0.925247
v 1.208310 0.637479 -0.898133
v 1.224826 0.623707 -0.909593
v 1.153753 0.960376 0.860279
v 1.198893 0.998001 0.891600
v 1.159800 0.978977 0.864475
v 1.176323 0.992749 0.875939
v 1.202264 0.656080 0.893939
v 1.247387 0.618455 0.925247
v 1.208310 0.637479 0.898133
v 1.224826 0.623707 0.909593
v -1.153753 0.960376 -0.860279
v -1.198893 0.998001 -0.891600
v -1.159800 0.978977 -0.864475
v -1.176323 0.992749 -0.875939
v -1.247387 0.618455 -0.925247
v -1.202264 0.656080 -0.893939
v -1.224826 0.623707 -0.909593
v -1.208310 0.637479 -0.898133
v -1.153753 0.960376 0.860279
v -1.198893 0.998001 0.891600
v -1.159800 0.978977 0.864475
v -1.176323 0.992749 0.875939
v -1.202264 0.656080 0.893939
v -1.247387 0.618455 0.925247
v -1.208310 0.637479 0.898133
v -1.224826 0.623707 0.909593
v 0.000000 0.634971 -0.918616
v 0.000000 0.672245 -0.887326
v 0.000000 0.640048 -0.902971
v 0.000000 0.653691 -0.891518
v 0.000000 0.981858 0.884386
v 0.000000 0.944584 0.853115
v 0.000000 0.976781 0.868751
v 0.000000 0.963138 0.857305
v 0.000000 0.634971 0.918616
v 0.000000 0.672245 0.887326
v 0.000000 0.640048 0.902971
v 0.000000 0.653691 0.891518
v 0.000000 0.981858 -0.884386
v 0.000000 0.944584 -0.853115
v 0.000000 0.976781 -0.868751
v 0.000000 0.963138 -0.857305
vn -0.0000 0.9875 -0.1574
vn 0.0462 0.9984 -0.0317
vn -0.0627 0.9905 0.1224
vn -0.0000 0.9887 0.1499
vn -0.0000 -0.9875 -0.1576
vn -0.0462 -0.9984 -0.0319
vn 0.0627 -0.9905 0.1224
vn -0.0000 -0.9887 0.1497
vn 0.9861 -0.1663 -0.0000
vn 1.0000 -0.0000 -0.0000
vn 0.9861 0.1664 -0.0000
vn -0.0462 0.9984 0.0317
vn -0.0462 0.9984 -0.0317
vn 0.0627 0.9905 0.1224
vn 0.0627 0.9905 -0.1224
vn 0.9893 -0.1461 -0.0000
vn 0.9893 0.1461 -0.0000
vn -0.0000 0.1095 0.9940
vn -0.0045 0.1213 0.9926
vn -0.0062 -0.0000 1.0000
vn -0.0000 -0.0000 1.0000
vn -0.0000 0.1095 -0.9940
vn 0.0045 0.1213 -0.9926
vn 0.0062 -0.0000 -1.0000
vn -0.0000 -0.0000 -1.0000
vn -0.9893 -0.1461 -0.0000
vn -0.9893 0.1461 -0.0000
vn 0.0462 0.9984 0.0317
vn -0.0000 0.9875 0.1574
vn -0.0000 0.9887 -0.1499
vn -0.0627 0.9905 -0.1224
vn -0.0000 -0.1101 0.9939
vn -0.0000 0.1101 0.9939
vn 0.0049 0.0998 0.9950
vn 0.0049 -0.0998 0.9950
vn 0.0049 -0.0998 -0.9950
vn 0.0049 0.0998 -0.9950
vn -0.0000 0.1101 -0.9939
vn -0.0000 -0.1101 -0.9939
vn -0.0049 0.0998 -0.9950
vn -0.0049 -0.0998 -0.9950
vn 0.0045 0.1213 0.9926
vn 0.0062 -0.0000 1.0000
vn -0.0049 -0.0998 0.9950
vn -0.0049 0.0998 0.9950
vn -0.0038 -0.1213 0.9926
vn -0.0000 -0.1096 0.9940
vn -0.0055 -0.0000 1.0000
vn -0.0000 1.0000 -0.0000
vn 0.0137 0.9999 -0.0000
vn -0.0137 0.9999 -0.0000
vn -0.9861 -0.1663 -0.0000
vn -1.0000 -0.0000 -0.0000
vn 0.0462 -0.9984 0.0319
vn 0.0462 -0.9984 -0.0319
vn -0.0627 -0.9905 0.1224
vn -0.0627 -0.9905 -0.1224
vn 0.0038 -0.1213 0.9926
vn 0.0055 -0.0000 1.0000
vn 0.0038 -0.1213 -0.9926
vn -0.0000 -0.1096 -0.9940
vn 0.0055 -0.0000 -1.0000
vn -0.0462 -0.9984 0.0319
vn 0.0627 -0.9905 -0.1224
vn -0.0000 -1.0000 -0.0000
vn -0.0134 -0.9999 -0.0000
vn 0.0134 -0.9999 -0.0000
vn -0.0000 -0.9875 0.1576
vn -0.0000 -0.9887 -0.1497
vn -0.0045 0.1213 -0.9926
vn -0.0062 -0.0000 -1.0000
vn -0.4258 -0.9032 0.0538
vn -0.4258 -0.9032 -0.0538
vn -0.6290 -0.7774 -0.0000
vn -0.9504 -0.3111 -0.0000
vn -0.0000 -0.9539 -0.3001
vn -0.0000 -0.6456 -0.7637
vn 0.0112 -0.6455 -0.7637
vn 0.0080 -0.3594 -0.9332
vn -0.0000 -0.4444 -0.8958
vn -0.4258 0.9032 0.0538
vn -0.0000 0.9539 0.3001
vn -0.0000 0.6456 0.7637
vn 0.0112 0.6455 0.7637
vn 0.0080 0.3594 0.9332
vn -0.0000 0.4444 0.8958
vn 0.4258 0.9032 0.0538
vn 0.4258 0.9032 -0.0538
vn 0.6290 0.7774 -0.0000
vn 0.9504 0.3111 -0.0000
vn 0.4258 -0.9032 0.0538
vn -0.0000 -0.9539 0.3001
vn -0.0000 -0.6456 0.7637
vn -0.0112 -0.6455 0.7637
vn -0.0080 -0.3594 0.9332
vn -0.0000 -0.4444 0.8958
vn -0.4258 0.9032 -0.0538
vn -0.6290 0.7774 -0.0000
vn -0.9504 0.3111 -0.0000
vn -0.0000 0.9539 -0.3001
vn -0.0000 0.6456 -0.7637
vn -0.0112 0.6455 -0.7637
vn -0.0080 0.3594 -0.9332
vn -0.0000 0.4444 -0.8958
vn 0.4258 -0.9032 -0.0538
vn 0.6290 -0.7774 -0.0000
vn 0.9504 -0.3111 -0.0000
vn -0.0112 -0.6455 -0.7637
vn -0.0080 -0.3594 -0.9332
vn -0.0112 0.6455 0.7637
vn -0.0080 0.3594 0.9332
vn 0.0112 -0.6455 0.7637
vn 0.0080 -0.3594 0.9332
vn 0.0112 0.6455 -0.7637
vn 0.0080 0.3594 -0.9332
vn -0.0038 -0.1213 -0.9926
vn -0.0055 -0.0000 -1.0000
vn 0.0016 0.5081 -0.8613
vn -0.0000 0.4417 -0.8972
vn 0.0040 0.6427 -0.7661
vn -0.0000 0.6427 -0.7661
vn -0.0000 0.9520 -0.3062
vn 0.2190 0.9657 -0.1396
vn -0.9861 0.1664 -0.0000
vn -0.9510 0.3092 -0.0000
vn -0.6403 0.7682 -0.0000
vn -0.2190 0.9657 -0.1396
vn -0.2190 0.9657 0.1396
vn 0.9510 0.3092 -0.0000
vn 0.6403 0.7682 -0.0000
vn 0.2190 0.9657 0.1396
vn -0.0016 0.5081 0.8613
vn -0.0000 0.4417 0.8972
vn -0.0040 0.6427 0.7661
vn -0.0000 0.6427 0.7661
vn -0.0000 0.9520 0.3062
vn -0.0016 0.5081 -0.8613
vn -0.0040 0.6427 -0.7661
vn 0.0016 0.5081 0.8613
vn 0.0040 0.6427 0.7661
vn 0.9510 -0.3091 -0.0000
vn 0.6404 -0.7680 -0.0000
vn 0.2191 -0.9657 -0.1396
vn 0.2191 -0.9657 0.1396
vn 0.0021 -0.5082 0.8612
vn -0.0000 -0.4419 0.8971
vn 0.0044 -0.6428 0.7660
vn -0.0000 -0.6429 0.7660
vn -0.0000 -0.9520 0.3062
vn -0.0021 -0.5082 -0.8612
vn -0.0000 -0.4419 -0.8971
vn -0.0044 -0.6428 -0.7660
vn -0.0000 -0.6429 -0.7660
vn -0.0000 -0.9520 -0.3062
vn -0.2191 -0.9657 -0.1396
vn -0.9510 -0.3091 -0.0000
vn -0.6404 -0.7680 -0.0000
vn -0.2191 -0.9657 0.1396
vn -0.0021 -0.5082 0.8612
vn -0.0044 -0.6428 0.7660
vn 0.0021 -0.5082 -0.8612
vn 0.0044 -0.6428 -0.7660
vt 0.749999 0.517838
vt 0.997958 0.461663
vt 0.511636 0.461663
vt 0.750001 0.732162
vt 0.509594 0.884265
vt 0.856425 0.726943
vt 1.000000 0.000000
vt 0.643575 0.523057
vt 0.509594 0.000000
vt 0.643575 0.726943
vt 0.856425 0.523057
vt 1.000000 0.884265
vt 0.249999 0.513541
vt 0.507709 0.475491
vt 0.001885 0.475491
vt 0.250001 0.736459
vt 0.139100 0.517623
vt 0.509594 0.000000
vt 0.000000 0.000000
vt 0.139100 0.732377
vt 0.360900 0.732377
vt 0.000000 0.911919
vt 0.360900 0.517623
vt 0.509594 0.911919
vt 0.566234 0.875000
vt 0.750001 0.741301
vt 0.595569 0.875003
vt 0.750000 0.750000
vt 0.625000 0.875000
vt 0.865813 0.738596
vt 0.571557 1.000000
vt 0.571557 0.000000
vt 0.870382 0.750000
vt 0.625000 0.995382
vt 0.875000 0.745681
vt 0.625000 0.004319
vt 0.598193 0.998766
vt 0.598167 0.001157
vt 0.571557 0.500000
vt 0.634187 0.511404
vt 0.598167 0.501157
vt 0.598193 0.498766
vt 0.629606 0.505706
vt 0.629618 0.500000
vt 0.625000 0.495382
vt 0.634187 0.738596
vt 0.571557 0.750000
vt 0.629606 0.744294
vt 0.629618 0.750000
vt 0.625000 0.754618
vt 0.598167 0.748843
vt 0.598193 0.751234
vt 0.865813 0.511404
vt 0.571557 0.250000
vt 0.875000 0.504319
vt 0.625000 0.245681
vt 0.870382 0.500000
vt 0.625000 0.254618
vt 0.598167 0.248843
vt 0.598193 0.251234
vt 0.566234 0.375000
vt 0.749999 0.508698
vt 0.595569 0.375003
vt 0.750000 0.500000
vt 0.625000 0.375000
vt 0.428443 0.250000
vt 0.134187 0.511482
vt 0.125000 0.501157
vt 0.375000 0.248843
vt 0.126282 0.500000
vt 0.375000 0.251282
vt 0.129607 0.505747
vt 0.134187 0.738518
vt 0.428443 0.000000
vt 0.428443 1.000000
vt 0.129607 0.744253
vt 0.125000 0.748843
vt 0.375000 0.001157
vt 0.126282 0.750000
vt 0.375000 0.998718
vt 0.433766 0.375000
vt 0.249999 0.508698
vt 0.250000 0.500000
vt 0.375000 0.375000
vt 0.249986 0.504354
vt 0.433766 0.875000
vt 0.250001 0.741301
vt 0.250000 0.750000
vt 0.375000 0.875000
vt 0.250014 0.745646
vt 0.365813 0.738518
vt 0.428443 0.750000
vt 0.370394 0.744255
vt 0.373718 0.750000
vt 0.375000 0.751282
vt 0.401833 0.748843
vt 0.365813 0.511482
vt 0.428443 0.500000
vt 0.370393 0.505747
vt 0.401833 0.501157
vt 0.373718 0.500000
vt 0.375000 0.498718
vt 0.639411 0.517888
vt 0.643575 0.523057
vt 0.641499 0.520475
vt 0.643295 0.522822
vt 0.360900 0.517623
vt 0.365062 0.512421
vt 0.361180 0.517382
vt 0.362975 0.515024
vt 0.643575 0.726943
vt 0.639411 0.732111
vt 0.643295 0.727178
vt 0.641499 0.729525
vt 0.360900 0.732377
vt 0.365062 0.737579
vt 0.361180 0.732618
vt 0.362975 0.734976
vt 0.856425 0.523057
vt 0.860589 0.517889
vt 0.856705 0.522822
vt 0.858501 0.520475
vt 0.134938 0.512421
vt 0.139100 0.517623
vt 0.137025 0.515024
vt 0.138820 0.517382
vt 0.856425 0.726943
vt 0.860589 0.732111
vt 0.856705 0.727178
vt 0.858501 0.729525
vt 0.139100 0.732377
vt 0.134938 0.737579
vt 0.138820 0.732618
vt 0.137025 0.734976
vt 0.249999 0.509610
vt 0.249999 0.513541
vt 0.249999 0.511577
vt 0.249999 0.513541
vt 0.750001 0.736090
vt 0.750001 0.732162
vt 0.750001 0.734124
vt 0.750001 0.732162
vt 0.250001 0.740390
vt 0.250001 0.736459
vt 0.250001 0.738423
vt 0.250001 0.736459
vt 0.749999 0.513910
vt 0.749999 0.517838
vt 0.749999 0.515876
vt 0.749999 0.517838
s 1
usemtl Comb
f 1/2/49 6/12/50 3/5/50 2/3/49
f 4/7/51 1/2/49 2/3/49 5/9/51
f 7/14/65 12/24/66 11/22/66 8/15/65
f 9/18/67 7/14/65 8/15/65 10/19/67
usemtl Shell
f 97/139/1 86/128/2 17/30/3 14/26/4
f 101/143/5 74/116/6 53/91/7 50/87/8
f 89/131/9 82/124/9 9/17/10 10/20/10
f 77/119/11 85/127/11 3/6/10 6/11/10
f 61/103/12 70/112/13 25/46/14 22/40/15
f 58/98/16 21/39/17 26/47/17 54/92/16
f 106/148/18 77/119/19 6/11/20 1/1/21
f 98/140/22 69/111/23 5/10/24 2/4/25
f 42/74/26 18/32/27 30/54/27 37/66/26
f 78/120/28 105/147/29 34/62/30 29/53/31
f 49/86/32 13/25/33 18/31/34 42/75/35
f 37/66/36 30/54/37 33/61/38 45/81/39
f 45/81/39 33/61/38 21/39/40 58/98/41
f 62/104/42 106/148/18 1/1/21 4/8/43
f 54/92/44 26/47/45 13/25/33 49/86/32
f 82/124/46 94/136/47 7/13/21 9/17/48
f 86/128/2 78/120/28 29/53/31 17/30/3
f 65/107/52 73/115/52 11/21/53 12/23/53
f 105/147/29 61/103/12 22/40/15 34/62/30
f 70/112/13 97/139/1 14/26/4 25/46/14
f 81/123/54 90/132/55 41/73/56 38/67/57
f 94/136/47 65/107/58 12/23/59 7/13/21
f 73/115/60 102/144/61 8/16/25 11/21/62
f 74/116/6 66/108/63 57/97/64 53/91/7
f 93/135/68 81/123/54 38/67/57 46/82/69
f 90/132/55 101/143/5 50/87/8 41/73/56
f 66/108/63 93/135/68 46/82/69 57/97/64
f 85/127/70 98/140/22 2/4/25 3/6/71
f 38/67/57 41/73/56 43/76/72 40/72/73
f 40/72/73 43/76/72 44/77/74 39/68/74
f 39/69/75 44/78/75 42/74/26 37/66/26
f 46/82/69 38/67/57 40/72/73 48/85/76
f 48/85/77 40/72/78 39/70/79 47/83/80
f 47/84/80 39/71/79 37/66/36 45/81/39
f 14/26/4 17/30/3 19/33/81 16/28/82
f 16/29/83 19/34/84 20/37/85 15/27/86
f 15/27/86 20/37/85 18/31/34 13/25/33
f 22/40/15 25/46/14 27/48/87 24/43/88
f 24/43/88 27/48/87 28/51/89 23/41/89
f 23/41/90 28/51/90 26/47/17 21/39/17
f 50/87/8 53/91/7 55/93/91 52/90/92
f 52/90/93 55/93/94 56/94/95 51/88/96
f 51/89/96 56/95/95 54/92/44 49/86/32
f 17/30/3 29/53/31 31/55/97 19/35/81
f 19/36/81 31/56/97 32/59/98 20/38/98
f 20/38/99 32/59/99 30/54/27 18/32/27
f 34/62/30 22/40/15 24/44/88 36/64/100
f 36/65/101 24/45/102 23/42/103 35/63/104
f 35/63/104 23/42/103 21/39/40 33/61/38
f 53/91/7 57/97/64 59/99/105 55/93/91
f 55/93/91 59/99/105 60/100/106 56/96/106
f 56/96/107 60/100/107 58/98/16 54/92/16
f 57/97/64 46/82/69 48/85/76 59/99/105
f 59/99/108 48/85/77 47/83/80 60/101/109
f 60/102/109 47/84/80 45/81/39 58/98/41
f 25/46/14 14/26/4 16/28/82 27/49/87
f 27/50/110 16/29/83 15/27/86 28/52/111
f 28/52/111 15/27/86 13/25/33 26/47/45
f 41/73/56 50/87/8 52/90/92 43/76/72
f 43/76/112 52/90/93 51/88/96 44/79/113
f 44/80/113 51/89/96 49/86/32 42/75/35
f 29/53/31 34/62/30 36/64/100 31/57/97
f 31/58/114 36/65/101 35/63/104 32/60/115
f 32/60/115 35/63/104 33/61/38 30/54/37
f 102/144/61 89/131/116 10/20/117 8/16/25
f 98/140/22 85/127/70 87/129/118 100/142/119
f 100/142/119 87/129/118 88/130/120 99/141/121
f 99/141/122 88/130/123 86/128/2 97/139/1
f 62/104/124 69/111/124 71/113/125 64/106/125
f 64/106/126 71/113/126 72/114/127 63/105/128
f 63/105/128 72/114/127 70/112/13 61/103/12
f 85/127/11 77/119/11 79/121/129 87/129/129
f 87/129/130 79/121/130 80/122/131 88/130/123
f 88/130/123 80/122/131 78/120/28 86/128/2
f 106/148/18 62/104/42 64/106/132 108/150/133
f 108/150/133 64/106/132 63/105/134 107/149/135
f 107/149/136 63/105/128 61/103/12 105/147/29
f 69/111/23 98/140/22 100/142/119 71/113/137
f 71/113/137 100/142/119 99/141/121 72/114/138
f 72/114/127 99/141/122 97/139/1 70/112/13
f 77/119/19 106/148/18 108/150/133 79/121/139
f 79/121/139 108/150/133 107/149/135 80/122/140
f 80/122/131 107/149/136 105/147/29 78/120/28
f 82/124/9 89/131/9 91/133/141 84/126/141
f 84/126/142 91/133/142 92/134/143 83/125/144
f 83/125/144 92/134/143 90/132/55 81/123/54
f 94/136/47 82/124/46 84/126/145 96/138/146
f 96/138/146 84/126/145 83/125/147 95/137/148
f 95/137/149 83/125/144 81/123/54 93/135/68
f 102/144/61 73/115/60 75/117/150 104/146/151
f 104/146/151 75/117/150 76/118/152 103/145/153
f 103/145/154 76/118/155 74/116/6 101/143/5
f 73/115/52 65/107/52 67/109/156 75/117/156
f 75/117/157 67/109/157 68/110/158 76/118/155
f 76/118/155 68/110/158 66/108/63 74/116/6
f 65/107/58 94/136/47 96/138/146 67/109/159
f 67/109/159 96/138/146 95/137/148 68/110/160
f 68/110/158 95/137/149 93/135/68 66/108/63
f 89/131/116 102/144/61 104/146/151 91/133/161
f 91/133/161 104/146/151 103/145/153 92/134/162
f 92/134/143 103/145/154 101/143/5 90/132/55
f 69/111/124 62/104/124 4/8/53 5/10/53
